<mxfile host="app.diagrams.net" modified="2021-08-19T16:04:13.308Z" agent="5.0 (X11; Linux x86_64) AppleWebKit/537.36 (KHTML, like Gecko) Chrome/92.0.4515.131 Safari/537.36" etag="0QUfqTLXDvJgqCLizleM" version="14.9.5" type="github">
  <diagram id="z_V9mUWqgcBi4xVvrytt" name="Page-1">
    <mxGraphModel dx="569" dy="277" grid="1" gridSize="10" guides="1" tooltips="1" connect="1" arrows="1" fold="1" page="1" pageScale="1" pageWidth="827" pageHeight="1169" math="0" shadow="0">
      <root>
        <mxCell id="0" />
        <mxCell id="1" parent="0" />
        <mxCell id="oa318X6nRyTcxkoAMsSy-10" style="edgeStyle=orthogonalEdgeStyle;rounded=0;orthogonalLoop=1;jettySize=auto;html=1;exitX=0.5;exitY=1;exitDx=0;exitDy=0;exitPerimeter=0;entryX=0.5;entryY=0;entryDx=0;entryDy=0;fontSize=10;" edge="1" parent="1" source="oa318X6nRyTcxkoAMsSy-1" target="oa318X6nRyTcxkoAMsSy-2">
          <mxGeometry relative="1" as="geometry" />
        </mxCell>
        <mxCell id="oa318X6nRyTcxkoAMsSy-1" value="START" style="strokeWidth=2;html=1;shape=mxgraph.flowchart.start_2;whiteSpace=wrap;fontSize=10;" vertex="1" parent="1">
          <mxGeometry x="90" y="50" width="70" height="60" as="geometry" />
        </mxCell>
        <mxCell id="oa318X6nRyTcxkoAMsSy-11" style="edgeStyle=orthogonalEdgeStyle;rounded=0;orthogonalLoop=1;jettySize=auto;html=1;entryX=0.5;entryY=0;entryDx=0;entryDy=0;fontSize=10;" edge="1" parent="1" source="oa318X6nRyTcxkoAMsSy-2" target="oa318X6nRyTcxkoAMsSy-3">
          <mxGeometry relative="1" as="geometry" />
        </mxCell>
        <mxCell id="oa318X6nRyTcxkoAMsSy-2" value="Input Data Training &lt;br style=&quot;font-size: 10px;&quot;&gt;&amp;amp; Test" style="shape=parallelogram;html=1;strokeWidth=2;perimeter=parallelogramPerimeter;whiteSpace=wrap;rounded=1;arcSize=12;size=0.23;fontSize=10;" vertex="1" parent="1">
          <mxGeometry x="60" y="150" width="130" height="60" as="geometry" />
        </mxCell>
        <mxCell id="oa318X6nRyTcxkoAMsSy-12" style="edgeStyle=orthogonalEdgeStyle;rounded=0;orthogonalLoop=1;jettySize=auto;html=1;exitX=0.5;exitY=1;exitDx=0;exitDy=0;entryX=0.5;entryY=0;entryDx=0;entryDy=0;fontSize=10;" edge="1" parent="1" source="oa318X6nRyTcxkoAMsSy-3" target="oa318X6nRyTcxkoAMsSy-4">
          <mxGeometry relative="1" as="geometry" />
        </mxCell>
        <mxCell id="oa318X6nRyTcxkoAMsSy-3" value="RGB to Gray" style="rounded=1;whiteSpace=wrap;html=1;absoluteArcSize=1;arcSize=14;strokeWidth=2;fontSize=10;" vertex="1" parent="1">
          <mxGeometry x="90" y="250" width="70" height="60" as="geometry" />
        </mxCell>
        <mxCell id="oa318X6nRyTcxkoAMsSy-13" style="edgeStyle=orthogonalEdgeStyle;rounded=0;orthogonalLoop=1;jettySize=auto;html=1;exitX=0.5;exitY=1;exitDx=0;exitDy=0;entryX=0.5;entryY=0;entryDx=0;entryDy=0;fontSize=10;" edge="1" parent="1" source="oa318X6nRyTcxkoAMsSy-4" target="oa318X6nRyTcxkoAMsSy-5">
          <mxGeometry relative="1" as="geometry" />
        </mxCell>
        <mxCell id="oa318X6nRyTcxkoAMsSy-4" value="HOG Transform" style="rounded=1;whiteSpace=wrap;html=1;absoluteArcSize=1;arcSize=14;strokeWidth=2;fontSize=10;" vertex="1" parent="1">
          <mxGeometry x="85" y="360" width="80" height="70" as="geometry" />
        </mxCell>
        <mxCell id="oa318X6nRyTcxkoAMsSy-14" style="edgeStyle=orthogonalEdgeStyle;rounded=0;orthogonalLoop=1;jettySize=auto;html=1;exitX=0.5;exitY=1;exitDx=0;exitDy=0;fontSize=10;" edge="1" parent="1" source="oa318X6nRyTcxkoAMsSy-5" target="oa318X6nRyTcxkoAMsSy-18">
          <mxGeometry relative="1" as="geometry" />
        </mxCell>
        <mxCell id="oa318X6nRyTcxkoAMsSy-5" value="Normalize&lt;br style=&quot;font-size: 10px;&quot;&gt;By Standar Scaler" style="rounded=1;whiteSpace=wrap;html=1;absoluteArcSize=1;arcSize=14;strokeWidth=2;fontSize=10;" vertex="1" parent="1">
          <mxGeometry x="85" y="470" width="80" height="60" as="geometry" />
        </mxCell>
        <mxCell id="oa318X6nRyTcxkoAMsSy-15" style="edgeStyle=orthogonalEdgeStyle;rounded=0;orthogonalLoop=1;jettySize=auto;html=1;exitX=0.5;exitY=1;exitDx=0;exitDy=0;entryX=0.5;entryY=0;entryDx=0;entryDy=0;fontSize=10;" edge="1" parent="1" source="oa318X6nRyTcxkoAMsSy-6" target="oa318X6nRyTcxkoAMsSy-7">
          <mxGeometry relative="1" as="geometry" />
        </mxCell>
        <mxCell id="oa318X6nRyTcxkoAMsSy-6" value="Train Data&amp;nbsp;&lt;br style=&quot;font-size: 10px;&quot;&gt;By SGD" style="rounded=1;whiteSpace=wrap;html=1;absoluteArcSize=1;arcSize=14;strokeWidth=2;fontSize=10;" vertex="1" parent="1">
          <mxGeometry x="295" y="150" width="70" height="70" as="geometry" />
        </mxCell>
        <mxCell id="oa318X6nRyTcxkoAMsSy-16" style="edgeStyle=orthogonalEdgeStyle;rounded=0;orthogonalLoop=1;jettySize=auto;html=1;exitX=0.5;exitY=1;exitDx=0;exitDy=0;entryX=0.5;entryY=0;entryDx=0;entryDy=0;fontSize=10;" edge="1" parent="1" source="oa318X6nRyTcxkoAMsSy-7" target="oa318X6nRyTcxkoAMsSy-8">
          <mxGeometry relative="1" as="geometry" />
        </mxCell>
        <mxCell id="oa318X6nRyTcxkoAMsSy-7" value="Test Data&lt;br style=&quot;font-size: 10px;&quot;&gt;with Model SGD" style="rounded=1;whiteSpace=wrap;html=1;absoluteArcSize=1;arcSize=14;strokeWidth=2;fontSize=10;" vertex="1" parent="1">
          <mxGeometry x="295" y="260" width="70" height="70" as="geometry" />
        </mxCell>
        <mxCell id="oa318X6nRyTcxkoAMsSy-17" style="edgeStyle=orthogonalEdgeStyle;rounded=0;orthogonalLoop=1;jettySize=auto;html=1;exitX=0.5;exitY=1;exitDx=0;exitDy=0;entryX=0.5;entryY=0;entryDx=0;entryDy=0;entryPerimeter=0;fontSize=10;" edge="1" parent="1" source="oa318X6nRyTcxkoAMsSy-8" target="oa318X6nRyTcxkoAMsSy-9">
          <mxGeometry relative="1" as="geometry" />
        </mxCell>
        <mxCell id="oa318X6nRyTcxkoAMsSy-8" value="Evaluate Performance Model by&lt;br style=&quot;font-size: 10px;&quot;&gt;Confusion Matrix" style="rounded=1;whiteSpace=wrap;html=1;absoluteArcSize=1;arcSize=14;strokeWidth=2;fontSize=10;" vertex="1" parent="1">
          <mxGeometry x="295" y="360" width="70" height="70" as="geometry" />
        </mxCell>
        <mxCell id="oa318X6nRyTcxkoAMsSy-9" value="END" style="strokeWidth=2;html=1;shape=mxgraph.flowchart.start_2;whiteSpace=wrap;fontSize=10;" vertex="1" parent="1">
          <mxGeometry x="290" y="485" width="80" height="75" as="geometry" />
        </mxCell>
        <mxCell id="oa318X6nRyTcxkoAMsSy-18" value="A" style="strokeWidth=2;html=1;shape=mxgraph.flowchart.start_2;whiteSpace=wrap;fontSize=10;" vertex="1" parent="1">
          <mxGeometry x="92.5" y="560" width="65" height="60" as="geometry" />
        </mxCell>
        <mxCell id="oa318X6nRyTcxkoAMsSy-20" style="edgeStyle=orthogonalEdgeStyle;rounded=0;orthogonalLoop=1;jettySize=auto;html=1;exitX=0.5;exitY=1;exitDx=0;exitDy=0;exitPerimeter=0;entryX=0.5;entryY=0;entryDx=0;entryDy=0;fontSize=10;" edge="1" parent="1" source="oa318X6nRyTcxkoAMsSy-19" target="oa318X6nRyTcxkoAMsSy-6">
          <mxGeometry relative="1" as="geometry" />
        </mxCell>
        <mxCell id="oa318X6nRyTcxkoAMsSy-19" value="A" style="strokeWidth=2;html=1;shape=mxgraph.flowchart.start_2;whiteSpace=wrap;fontSize=10;" vertex="1" parent="1">
          <mxGeometry x="300" y="50" width="60" height="60" as="geometry" />
        </mxCell>
      </root>
    </mxGraphModel>
  </diagram>
</mxfile>
